<svg width="313" height="174" viewBox="0 0 313 174" fill="none" xmlns="http://www.w3.org/2000/svg">
<rect width="312.212" height="174" rx="12" fill="white"/>
<path d="M274.341 92.0068C280.143 85.1173 276.879 76.7773 267.814 76.0521C254.216 74.9643 239.349 76.7773 225.933 79.1343C209.253 82.0351 192.936 86.749 176.8 91.4629C175.712 91.8255 174.624 92.0068 173.536 92.3694C174.805 90.919 175.893 89.2872 176.981 87.8368C182.601 79.4969 187.859 66.6243 180.97 57.3778C177.887 53.2079 172.992 53.0266 167.916 54.6583C159.395 47.2249 144.346 58.647 137.819 64.4487C126.397 74.2391 112.256 89.8312 110.805 105.605C110.805 105.605 110.805 105.605 110.805 105.786C101.74 107.236 92.6749 108.505 83.6097 108.868C72.0063 109.231 59.6776 108.143 49.162 102.522C44.9921 100.165 41.0034 97.0833 38.2838 93.0946C34.4765 87.4742 37.9212 82.2164 42.6351 78.5903C43.179 78.0464 42.8164 77.1399 42.0912 77.5025C34.6578 81.8538 32.6634 88.562 37.9212 95.6329C43.7229 103.248 53.5133 107.055 62.3972 108.868C75.8136 111.769 90.1366 110.5 103.734 108.687C106.091 108.324 108.267 107.961 110.624 107.599C110.987 120.471 126.216 122.647 136.188 119.565C149.604 115.395 162.114 105.967 171.361 94.9077C196.743 88.0181 221.763 80.2221 248.233 78.5903C254.216 78.2277 260.38 77.6838 266.363 77.8651C271.259 78.0464 276.516 80.4034 275.247 86.3864C274.341 90.1938 270.533 93.2759 267.814 95.8142C259.655 102.704 248.777 106.874 238.805 110.137C236.63 110.862 225.389 112.857 225.026 108.687C228.652 105.061 231.372 100.528 232.278 96.7207C232.641 95.4516 230.647 94.9076 230.284 96.1768C229.196 99.8028 223.576 103.792 223.032 107.78C221.219 109.412 219.225 110.681 217.049 111.769C213.423 113.582 208.346 113.038 207.803 109.775C211.61 107.055 214.873 103.792 216.868 99.8028C217.23 98.8963 216.505 98.1711 215.599 98.5337C213.423 99.6215 207.077 104.698 205.446 108.868C203.451 110.137 201.457 111.225 199.463 112.131C196.743 113.401 193.298 115.758 193.117 111.95C197.831 108.868 201.638 104.879 202.907 100.165C203.089 99.4402 202.363 98.715 201.638 98.8963C195.836 100.347 191.848 105.061 191.304 110.681C189.31 111.95 187.315 112.857 185.502 113.763C183.689 114.67 181.876 115.214 179.882 115.576C177.162 116.301 178.975 113.582 179.338 112.131C184.052 108.868 188.04 104.879 189.491 99.8028C189.672 99.0776 188.947 98.5337 188.222 98.8963C183.508 101.978 180.063 105.967 178.069 110.862C177.162 111.406 176.256 112.131 175.349 112.675C173.174 113.945 170.998 115.214 168.641 116.301C167.372 116.845 167.553 115.758 168.097 114.126C172.267 111.225 175.712 107.599 177.525 103.429C177.706 102.885 177.162 102.16 176.618 102.522C171.723 104.517 168.097 108.143 166.647 113.038C165.921 113.582 165.196 114.126 164.471 114.488C162.295 115.939 159.938 117.208 157.581 118.477C156.675 118.84 155.95 119.384 155.043 119.746C151.78 121.378 155.768 117.933 156.312 117.389C156.675 117.027 156.131 116.664 155.768 116.845C154.137 118.114 153.049 119.021 152.505 121.015C152.324 121.378 152.868 121.922 153.23 121.741C157.219 120.29 161.751 118.114 165.921 115.576C165.74 116.483 165.74 117.208 165.74 118.114C165.74 118.658 166.284 119.021 166.828 118.84C170.091 117.571 173.717 115.939 176.981 113.763C176.618 114.851 176.437 115.939 176.256 117.208C176.256 117.933 176.8 118.114 177.344 118.114C181.514 117.571 186.409 115.939 190.76 113.401C190.76 114.307 190.941 115.214 191.123 116.12C191.304 116.664 191.848 117.027 192.392 116.845C196.562 115.758 200.913 114.126 204.902 111.769C205.083 112.857 205.989 113.763 207.621 114.307C213.06 116.483 218.681 114.307 223.213 110.318C223.576 110.862 224.12 111.588 224.845 112.131C231.735 117.208 243.157 111.044 249.684 108.324C259.111 104.154 267.814 99.6215 274.341 92.0068ZM117.876 91.2816C122.59 82.579 129.117 74.783 136.188 67.8934C142.352 61.9104 149.785 55.5648 158.307 53.5705C161.389 52.8453 164.471 53.2079 167.009 54.8396C160.12 57.1965 153.049 62.6356 149.423 65.3552C148.698 65.8991 149.242 66.9869 150.148 66.6243C154.681 64.0861 162.295 58.4657 169.185 56.8339C169.366 57.0152 169.547 57.1965 169.91 57.5592C169.91 57.7405 170.091 57.5592 170.091 57.3778C169.91 57.1965 169.729 57.0152 169.548 56.6526C172.811 55.9274 175.893 56.1087 178.25 58.1031C185.321 63.7235 180.426 76.7773 176.981 82.9416C174.987 86.5677 172.63 90.0125 169.729 93.2759C156.312 96.7207 142.896 99.6215 129.298 102.341C123.859 103.429 118.42 104.517 112.8 105.423C113.162 100.347 115.7 95.4516 117.876 91.2816ZM133.649 117.752C126.579 119.746 118.601 119.384 114.613 112.313C113.706 110.681 113.162 108.868 112.981 107.236C124.584 105.423 136.188 103.248 147.791 100.709C154.318 99.2589 160.845 97.6272 167.372 95.9955C158.125 105.967 145.978 114.126 133.649 117.752ZM172.086 106.692C172.992 105.786 174.08 104.879 175.349 104.335C174.443 105.786 173.174 107.055 172.086 108.324C171.542 108.868 170.817 109.593 170.091 110.137C170.998 108.324 171.723 107.055 172.086 106.692ZM186.953 101.616C185.502 104.335 183.327 106.692 180.788 108.687C182.42 105.967 184.596 103.61 186.953 101.616ZM200.369 101.253C198.919 104.335 196.38 106.874 193.48 109.049C194.205 105.605 196.924 102.704 200.369 101.253ZM209.072 105.967C210.159 104.335 211.791 102.885 213.423 101.616C212.154 103.429 210.522 105.061 208.709 106.33C208.89 106.33 208.89 106.148 209.072 105.967Z" fill="#0B2034"/>
</svg>
